<svg id="Layer_9" data-name="Layer 9" xmlns="http://www.w3.org/2000/svg" xmlns:xlink="http://www.w3.org/1999/xlink" viewBox="0 0 5121.02 1378.13"><defs><style>.cls-1,.cls-10,.cls-11,.cls-12,.cls-13,.cls-14,.cls-15,.cls-16,.cls-17,.cls-18,.cls-19,.cls-2,.cls-20,.cls-21,.cls-22,.cls-23,.cls-24,.cls-25,.cls-26,.cls-27,.cls-28,.cls-29,.cls-3,.cls-30,.cls-31,.cls-32,.cls-33,.cls-34,.cls-35,.cls-36,.cls-37,.cls-38,.cls-39,.cls-4,.cls-40,.cls-41,.cls-42,.cls-43,.cls-44,.cls-45,.cls-46,.cls-47,.cls-48,.cls-5,.cls-6,.cls-7,.cls-8,.cls-9{fill:none;stroke-miterlimit:10;stroke-width:1.97px;}.cls-1{stroke:url(#linear-gradient);}.cls-2{stroke:url(#linear-gradient-2);}.cls-3{stroke:url(#linear-gradient-3);}.cls-4{stroke:url(#linear-gradient-4);}.cls-5{stroke:url(#linear-gradient-5);}.cls-6{stroke:url(#linear-gradient-6);}.cls-7{stroke:url(#linear-gradient-7);}.cls-8{stroke:url(#linear-gradient-8);}.cls-9{stroke:url(#linear-gradient-9);}.cls-10{stroke:url(#linear-gradient-10);}.cls-11{stroke:url(#linear-gradient-11);}.cls-12{stroke:url(#linear-gradient-12);}.cls-13{stroke:url(#linear-gradient-13);}.cls-14{stroke:url(#linear-gradient-14);}.cls-15{stroke:url(#linear-gradient-15);}.cls-16{stroke:url(#linear-gradient-16);}.cls-17{stroke:url(#linear-gradient-17);}.cls-18{stroke:url(#linear-gradient-18);}.cls-19{stroke:url(#linear-gradient-19);}.cls-20{stroke:url(#linear-gradient-20);}.cls-21{stroke:url(#linear-gradient-21);}.cls-22{stroke:url(#linear-gradient-22);}.cls-23{stroke:url(#linear-gradient-23);}.cls-24{stroke:url(#linear-gradient-24);}.cls-25{stroke:url(#linear-gradient-25);}.cls-26{stroke:url(#linear-gradient-26);}.cls-27{stroke:url(#linear-gradient-27);}.cls-28{stroke:url(#linear-gradient-28);}.cls-29{stroke:url(#linear-gradient-29);}.cls-30{stroke:url(#linear-gradient-30);}.cls-31{stroke:url(#linear-gradient-31);}.cls-32{stroke:url(#linear-gradient-32);}.cls-33{stroke:url(#linear-gradient-33);}.cls-34{stroke:url(#linear-gradient-34);}.cls-35{stroke:url(#linear-gradient-35);}.cls-36{stroke:url(#linear-gradient-36);}.cls-37{stroke:url(#linear-gradient-37);}.cls-38{stroke:url(#linear-gradient-38);}.cls-39{stroke:url(#linear-gradient-39);}.cls-40{stroke:url(#linear-gradient-40);}.cls-41{stroke:url(#linear-gradient-41);}.cls-42{stroke:url(#linear-gradient-42);}.cls-43{stroke:url(#linear-gradient-43);}.cls-44{stroke:url(#linear-gradient-44);}.cls-45{stroke:url(#linear-gradient-45);}.cls-46{stroke:url(#linear-gradient-46);}.cls-47{stroke:url(#linear-gradient-47);}.cls-48{stroke:url(#linear-gradient-48);}</style><linearGradient id="linear-gradient" x1="-0.7" y1="764.37" x2="5112.03" y2="764.37" gradientUnits="userSpaceOnUse"><stop offset="0" stop-color="#4e8fff" stop-opacity="0.1"/><stop offset="0.07" stop-color="#4797ff" stop-opacity="0.95"/><stop offset="0.91" stop-color="#04dfff" stop-opacity="0.95"/><stop offset="1" stop-color="#00e4ff" stop-opacity="0.1"/></linearGradient><linearGradient id="linear-gradient-2" x1="-0.7" y1="760.05" x2="5112.1" y2="760.05" xlink:href="#linear-gradient"/><linearGradient id="linear-gradient-3" x1="-0.69" y1="755.71" x2="5112.28" y2="755.71" xlink:href="#linear-gradient"/><linearGradient id="linear-gradient-4" x1="-0.69" y1="751.33" x2="5112.46" y2="751.33" xlink:href="#linear-gradient"/><linearGradient id="linear-gradient-5" x1="-0.69" y1="746.93" x2="5112.64" y2="746.93" xlink:href="#linear-gradient"/><linearGradient id="linear-gradient-6" x1="-0.68" y1="742.5" x2="5112.82" y2="742.5" xlink:href="#linear-gradient"/><linearGradient id="linear-gradient-7" x1="-0.68" y1="738.04" x2="5113" y2="738.04" xlink:href="#linear-gradient"/><linearGradient id="linear-gradient-8" x1="-0.67" y1="733.54" x2="5113.18" y2="733.54" xlink:href="#linear-gradient"/><linearGradient id="linear-gradient-9" x1="-0.67" y1="729.02" x2="5113.35" y2="729.02" xlink:href="#linear-gradient"/><linearGradient id="linear-gradient-10" x1="-0.67" y1="724.46" x2="5113.53" y2="724.46" xlink:href="#linear-gradient"/><linearGradient id="linear-gradient-11" x1="-0.66" y1="719.86" x2="5113.71" y2="719.86" xlink:href="#linear-gradient"/><linearGradient id="linear-gradient-12" x1="-0.66" y1="715.23" x2="5113.89" y2="715.23" xlink:href="#linear-gradient"/><linearGradient id="linear-gradient-13" x1="-0.65" y1="710.56" x2="5114.07" y2="710.56" xlink:href="#linear-gradient"/><linearGradient id="linear-gradient-14" x1="-0.64" y1="705.85" x2="5114.25" y2="705.85" xlink:href="#linear-gradient"/><linearGradient id="linear-gradient-15" x1="-0.64" y1="701.09" x2="5114.42" y2="701.09" xlink:href="#linear-gradient"/><linearGradient id="linear-gradient-16" x1="-0.63" y1="696.3" x2="5114.6" y2="696.3" xlink:href="#linear-gradient"/><linearGradient id="linear-gradient-17" x1="-0.63" y1="691.46" x2="5114.78" y2="691.46" xlink:href="#linear-gradient"/><linearGradient id="linear-gradient-18" x1="-0.62" y1="686.57" x2="5114.96" y2="686.57" xlink:href="#linear-gradient"/><linearGradient id="linear-gradient-19" x1="-0.61" y1="681.63" x2="5115.14" y2="681.63" xlink:href="#linear-gradient"/><linearGradient id="linear-gradient-20" x1="-0.6" y1="680.02" x2="5115.32" y2="680.02" xlink:href="#linear-gradient"/><linearGradient id="linear-gradient-21" x1="-0.6" y1="684.61" x2="5115.5" y2="684.61" xlink:href="#linear-gradient"/><linearGradient id="linear-gradient-22" x1="-0.59" y1="689.44" x2="5115.67" y2="689.44" xlink:href="#linear-gradient"/><linearGradient id="linear-gradient-23" x1="-0.58" y1="694.46" x2="5115.85" y2="694.46" xlink:href="#linear-gradient"/><linearGradient id="linear-gradient-24" x1="-0.57" y1="699.6" x2="5116.03" y2="699.6" xlink:href="#linear-gradient"/><linearGradient id="linear-gradient-25" x1="-0.56" y1="704.82" x2="5116.21" y2="704.82" xlink:href="#linear-gradient"/><linearGradient id="linear-gradient-26" x1="-0.55" y1="710.09" x2="5116.39" y2="710.09" xlink:href="#linear-gradient"/><linearGradient id="linear-gradient-27" x1="-0.54" y1="715.38" x2="5116.57" y2="715.38" xlink:href="#linear-gradient"/><linearGradient id="linear-gradient-28" x1="-0.53" y1="720.66" x2="5116.74" y2="720.66" xlink:href="#linear-gradient"/><linearGradient id="linear-gradient-29" x1="-0.52" y1="725.92" x2="5116.92" y2="725.92" xlink:href="#linear-gradient"/><linearGradient id="linear-gradient-30" x1="-0.5" y1="731.14" x2="5117.1" y2="731.14" xlink:href="#linear-gradient"/><linearGradient id="linear-gradient-31" x1="-0.49" y1="736.31" x2="5117.28" y2="736.31" xlink:href="#linear-gradient"/><linearGradient id="linear-gradient-32" x1="-0.48" y1="741.41" x2="5117.46" y2="741.41" xlink:href="#linear-gradient"/><linearGradient id="linear-gradient-33" x1="-0.46" y1="746.42" x2="5117.64" y2="746.42" xlink:href="#linear-gradient"/><linearGradient id="linear-gradient-34" x1="-0.44" y1="751.34" x2="5117.82" y2="751.34" xlink:href="#linear-gradient"/><linearGradient id="linear-gradient-35" x1="-0.43" y1="756.16" x2="5117.99" y2="756.16" xlink:href="#linear-gradient"/><linearGradient id="linear-gradient-36" x1="-0.41" y1="760.85" x2="5118.17" y2="760.85" xlink:href="#linear-gradient"/><linearGradient id="linear-gradient-37" x1="-0.39" y1="765.41" x2="5118.35" y2="765.41" xlink:href="#linear-gradient"/><linearGradient id="linear-gradient-38" x1="-0.37" y1="769.83" x2="5118.53" y2="769.83" xlink:href="#linear-gradient"/><linearGradient id="linear-gradient-39" x1="-0.35" y1="774.08" x2="5118.71" y2="774.08" xlink:href="#linear-gradient"/><linearGradient id="linear-gradient-40" x1="-0.32" y1="778.17" x2="5118.89" y2="778.17" xlink:href="#linear-gradient"/><linearGradient id="linear-gradient-41" x1="-0.3" y1="782.06" x2="5119.07" y2="782.06" xlink:href="#linear-gradient"/><linearGradient id="linear-gradient-42" x1="-0.27" y1="785.76" x2="5119.24" y2="785.76" xlink:href="#linear-gradient"/><linearGradient id="linear-gradient-43" x1="-0.24" y1="789.23" x2="5119.42" y2="789.23" xlink:href="#linear-gradient"/><linearGradient id="linear-gradient-44" x1="-0.21" y1="792.46" x2="5119.6" y2="792.46" xlink:href="#linear-gradient"/><linearGradient id="linear-gradient-45" x1="-0.18" y1="795.43" x2="5119.78" y2="795.43" xlink:href="#linear-gradient"/><linearGradient id="linear-gradient-46" x1="-0.15" y1="798.12" x2="5119.96" y2="798.12" xlink:href="#linear-gradient"/><linearGradient id="linear-gradient-47" x1="-0.11" y1="800.49" x2="5120.14" y2="800.49" xlink:href="#linear-gradient"/><linearGradient id="linear-gradient-48" x1="-0.07" y1="802.53" x2="5120.31" y2="802.53" xlink:href="#linear-gradient"/></defs><title>ZDCM Manager</title><path class="cls-1" d="M0,664.8C796.27-147,1425.35,343.52,1323.23,482.19c-243,330,864.09,631.06,1232.57,650.3,701.16,36.61,546.61-274,870.64-337.28,399.48-78,1005.1,756.08,1446.14,462,90.46-60.31,239-130,239-130" transform="translate(0.7 -113.47)"/><path class="cls-2" d="M0,653.12C787.84-142.08,1418,348,1314.55,493.24,1072.74,832.7,2182.47,1109.8,2558.05,1129c701.17,36.24,552-252.22,879.67-321.9,396.66-84.37,988.62,726.43,1428.49,441.37,92.32-59.83,242.75-126.61,245.59-127.57" transform="translate(0.7 -113.47)"/><path class="cls-3" d="M0,641.44c779.42-778.57,1410.58-288.9,1305.87-137.16-240.69,348.8,871.75,602.07,1254.43,621.32,701.19,35.87,557.42-230.36,888.7-306.53,393.82-90.55,972.33,696.95,1410.83,420.7,94.21-59.35,246.47-123.21,252.15-125.12" transform="translate(0.7 -113.47)"/><path class="cls-4" d="M0,629.76C771-132.17,1403.17,357,1297.19,515.33c-239.66,358,875.58,587.58,1265.36,606.82,701.2,35.5,562.76-208.43,897.72-291.16,391-96.56,956.22,667.63,1393.17,400,96.12-58.86,250.19-119.8,258.71-122.67" transform="translate(0.7 -113.47)"/><path class="cls-5" d="M0,618.08c762.57-745.29,1395.73-256.66,1288.51-91.71-238.7,367.2,879.41,573.09,1276.28,592.33,701.22,35.13,568.05-186.41,906.75-275.79,388.08-102.41,940.28,638.47,1375.51,379.36,98.06-58.38,253.92-116.4,265.27-120.23" transform="translate(0.7 -113.47)"/><path class="cls-6" d="M0,606.4c754.14-728.66,1388.26-240.58,1279.83-69C1042,913.71,2163.06,1096,2567,1115.26,3268.27,1150,3140.35,951,3482.82,854.84c385.19-108.11,924.49,609.48,1357.85,358.69,100-57.89,257.64-113,271.83-117.78" transform="translate(0.7 -113.47)"/><path class="cls-7" d="M0,594.72c745.72-712,1380.78-224.52,1271.14-46.27-237,385.33,887.07,544.11,1298.14,563.35,701.25,34.4,578.55-142.11,924.81-245,382.31-113.65,908.86,580.64,1340.2,338,102-57.39,261.37-109.59,278.4-115.33" transform="translate(0.7 -113.47)"/><path class="cls-8" d="M0,583C737.29-112.34,1373.26,374.56,1262.46,559.5c-236.24,394.31,890.9,529.62,1309.07,548.86,701.26,34,583.76-119.83,933.84-229.67,379.42-119,893.38,552,1322.54,317.35,104-56.88,265.09-106.18,285-112.89" transform="translate(0.7 -113.47)"/><path class="cls-9" d="M0,571.36c728.87-678.75,1365.73-192.47,1253.78-.82-235.55,403.24,894.73,515.13,1320,534.37,701.28,33.66,589-97.46,942.87-214.3,376.54-124.31,878,523.45,1304.88,296.68,106.08-56.36,268.81-102.78,291.52-110.44" transform="translate(0.7 -113.47)"/><path class="cls-10" d="M0,559.68c720.44-662.11,1358.17-176.47,1245.1,21.9C1010.18,993.71,2143.65,1082.22,2576,1101.47c701.29,33.29,594.16-75,951.9-198.93,373.68-129.44,862.81,495.08,1287.22,276,108.15-55.83,272.54-99.37,298.08-108" transform="translate(0.7 -113.47)"/><path class="cls-11" d="M0,548C712-97.48,1350.59,387.52,1236.42,592.63c-234.33,421,902.38,486.14,1341.85,505.39,701.31,32.92,599.34-52.47,960.92-183.55C3910,780,4386.91,1381.34,4808.75,1169.8c110.24-55.28,276.26-96,304.64-105.54" transform="translate(0.7 -113.47)"/><path class="cls-12" d="M0,536.32C703.59-92.52,1343,391.8,1227.73,603.67c-233.8,429.8,906.21,471.65,1352.78,490.9,701.32,32.55,604.53-29.83,970-168.18,368-139.32,832.74,438.81,1251.9,234.66,112.35-54.72,280-92.56,311.21-103.1" transform="translate(0.7 -113.47)"/><path class="cls-13" d="M0,524.64C695.17-87.56,1335.36,396.08,1219.05,614.72c-233.32,438.59,910,457.16,1363.7,476.41,701.34,32.18,609.73-7.12,979-152.81,365.18-144.09,817.86,410.89,1234.25,214,114.49-54.14,283.71-89.16,317.77-100.65" transform="translate(0.7 -113.47)"/><path class="cls-14" d="M0,513C686.74-82.61,1327.72,400.34,1210.37,625.76,977.49,1073.12,2124.25,1068.43,2585,1087.68c701.35,31.82,614.94,15.69,988-137.44,362.39-148.74,803.09,383.12,1216.59,193.32,116.64-53.54,287.43-85.75,324.33-98.2" transform="translate(0.7 -113.47)"/><path class="cls-15" d="M0,501.28C678.32-77.65,1320.05,404.59,1201.69,636.81c-232.48,456.1,917.7,428.18,1385.56,447.43,701.37,31.45,620.16,38.58,997-122.07,359.63-153.29,788.42,355.49,1198.93,172.65,118.82-52.92,291.16-82.35,330.89-95.76" transform="translate(0.7 -113.47)"/><path class="cls-16" d="M0,489.6c669.89-562.3,1312.37-80.77,1193,158.25-232.12,464.82,921.53,413.69,1396.49,432.94,701.38,31.08,625.4,61.56,1006.07-106.69,356.89-157.75,773.83,328,1181.27,152,121-52.28,294.88-78.95,337.45-93.31" transform="translate(0.7 -113.47)"/><path class="cls-17" d="M0,477.92c661.47-545.66,1304.67-64.86,1184.33,181-231.8,473.52,925.36,399.2,1407.42,418.45,701.39,30.71,630.67,84.63,1015.09-91.32,354.18-162.11,759.32,300.65,1163.61,131.31,123.23-51.62,298.6-75.54,344-90.86" transform="translate(0.7 -113.47)"/><path class="cls-18" d="M0,466.24c653-529,1296.94-49,1175.64,203.69-231.51,482.21,929.19,384.71,1418.34,404,701.41,30.34,636,107.78,1024.12-75.95,351.51-166.38,744.89,273.42,1146,110.63,125.46-50.92,302.33-72.14,350.58-88.41" transform="translate(0.7 -113.47)"/><path class="cls-19" d="M0,454.56C644.62-57.83,1289.2,421.5,1167,681c-231.25,490.89,933,370.21,1429.27,389.47,701.42,30,641.3,131,1033.15-60.58,348.87-170.57,730.53,246.33,1128.3,90,127.72-50.21,306.05-68.73,357.14-86" transform="translate(0.7 -113.47)"/><path class="cls-20" d="M0,442.88C636.19-52.87,1281.45,425.7,1158.28,692c-231,499.55,936.85,355.72,1440.2,375,701.44,29.6,646.67,154.33,1042.18-45.2,346.26-174.68,716.23,219.36,1110.64,69.29,130-49.46,309.78-65.33,363.7-83.52" transform="translate(0.7 -113.47)"/><path class="cls-21" d="M0,431.2c627.77-479.12,1273.67-1.3,1149.6,271.86-230.83,508.2,940.68,341.23,1451.13,360.49,701.45,29.23,652.08,177.72,1051.21-29.83,343.69-178.72,702,192.51,1093,48.62,132.27-48.68,313.5-61.92,370.27-81.07" transform="translate(0.7 -113.47)"/><path class="cls-22" d="M0,419.52C619.34-43,1265.88,434.1,1140.92,714.11,910.26,1231,2085.43,1040.85,2603,1060.11c701.47,28.87,657.53,201.2,1060.24-14.46C4004.36,863,4351,1211.43,4738.53,1073.6c134.57-47.86,317.22-58.52,376.83-78.63" transform="translate(0.7 -113.47)"/><path class="cls-23" d="M0,407.84C610.91-38,1258.07,438.29,1132.24,725.15c-230.51,525.48,948.34,312.25,1473,331.51,701.48,28.5,663,224.76,1069.27.91,338.65-186.6,673.67,139.16,1057.67,7.28,136.89-47,320.95-55.11,383.39-76.18" transform="translate(0.7 -113.47)"/><path class="cls-24" d="M0,396.16C602.49-33,1250.25,442.48,1123.55,736.2c-230.39,534.11,952.17,297.76,1483.91,317,701.5,28.13,668.56,248.39,1078.29,16.29,336.19-190.45,659.57,112.66,1040-13.39,139.22-46.13,324.67-51.71,390-73.73" transform="translate(0.7 -113.47)"/><path class="cls-25" d="M0,384.48C594.06-28.09,1242.42,446.66,1114.87,747.24c-230.29,542.73,956,283.27,1494.84,302.53,701.51,27.76,674.16,272.1,1087.32,31.66,333.77-194.24,645.52,86.27,1022.35-34.06,141.56-45.2,328.39-48.3,396.51-71.28" transform="translate(0.7 -113.47)"/><path class="cls-26" d="M0,372.8c585.64-395.94,1234.57,78,1106.19,385.48C876,1309.63,2066,1027.06,2612,1046.32c701.53,27.39,679.8,295.89,1096.35,47,331.38-198,631.49,60,1004.69-54.74,143.91-44.24,332.12-44.9,403.08-68.84" transform="translate(0.7 -113.47)"/><path class="cls-27" d="M0,361.12C577.21-18.18,1226.71,455,1097.51,769.33c-230.16,560,963.66,254.28,1516.69,273.55,701.54,27,685.51,319.75,1105.38,62.4,329-201.67,617.49,33.8,987-75.41,146.28-43.23,335.84-41.49,409.64-66.39" transform="translate(0.7 -113.47)"/><path class="cls-28" d="M0,349.44C568.79-13.22,1218.83,459.18,1088.83,780.37c-230.13,568.56,967.49,239.79,1527.62,259.06,701.56,26.65,691.27,343.68,1114.41,77.77,326.73-205.32,603.52,7.72,969.37-96.08C4848.89,979,5039.8,983,5116.43,957.19" transform="translate(0.7 -113.47)"/><path class="cls-29" d="M0,337.76c560.36-346,1210.94,125.58,1080.15,453.65C850,1368.58,2051.47,1016.72,2618.69,1036c701.57,26.28,697.08,367.67,1123.44,93.15,324.47-208.92,589.56-18.27,951.72-116.75,151-41.07,343.29-34.69,422.76-61.5" transform="translate(0.7 -113.47)"/><path class="cls-30" d="M0,326.08C551.94-3.31,1203,467.51,1071.46,802.46c-230.11,585.76,975.15,210.81,1549.48,230.08,701.59,25.92,703,391.74,1132.47,108.52,322.24-212.49,575.62-44.16,934.06-137.42,153.45-39.92,347-31.28,429.32-59" transform="translate(0.7 -113.47)"/><path class="cls-31" d="M0,314.4C543.51,1.65,1195.13,471.67,1062.78,813.5c-230.12,594.36,979,196.32,1560.4,215.59,701.6,25.55,708.91,415.87,1141.49,123.89,320.05-216,561.68-70,916.4-158.09,155.85-38.72,350.74-27.88,435.89-56.6" transform="translate(0.7 -113.47)"/><path class="cls-32" d="M0,302.72C535.09,6.6,1187.21,475.83,1054.1,824.55c-230.16,603,982.81,181.83,1571.33,201.1C3327,1050.82,3340.35,1465.72,3776,1164.91c317.9-219.53,547.76-95.67,898.74-178.76C4833,948.68,5029.16,961.68,5117.14,932" transform="translate(0.7 -113.47)"/><path class="cls-33" d="M0,291C526.66,11.56,1179.28,480,1045.42,835.59c-230.2,611.55,986.64,167.34,1582.26,186.61,701.63,24.81,721,464.33,1159.55,154.64,315.79-223,533.83-121.3,881.08-199.43,160.68-36.15,358.18-21.07,449-51.71" transform="translate(0.7 -113.47)"/><path class="cls-34" d="M0,279.36C518.24,16.52,1171.33,484.14,1036.74,846.63c-230.26,620.14,990.47,152.85,1593.19,172.12,701.64,24.44,727.13,488.65,1168.58,170,313.72-226.45,519.9-146.84,863.43-220.11C4825,933.87,5023.84,951,5117.5,919.39" transform="translate(0.7 -113.47)"/><path class="cls-35" d="M0,267.68c509.81-246.21,1163.38,220.61,1028.06,590C797.72,1486.41,2022.36,996,2632.17,1015.31c701.66,24.07,733.34,513,1177.61,185.38,311.69-229.87,506-172.31,845.77-240.78,165.53-33.35,365.63-14.26,462.13-46.81" transform="translate(0.7 -113.47)"/><path class="cls-36" d="M0,256C501.39,26.43,1155.42,492.45,1019.37,868.72c-230.43,637.33,998.13,123.86,1615,143.14,701.67,23.7,739.61,537.47,1186.64,200.75,309.7-233.27,492-197.69,828.11-261.45,168-31.86,369.36-10.85,468.7-44.37" transform="translate(0.7 -113.47)"/><path class="cls-37" d="M0,244.33C493,31.38,1147.44,496.6,1010.69,879.77c-230.53,645.92,1002,109.37,1626,128.65,701.69,23.33,746,562,1195.67,216.13,307.74-236.66,478-223,810.45-282.12,170.39-30.3,373.08-7.45,475.26-41.92" transform="translate(0.7 -113.47)"/><path class="cls-38" d="M0,232.65C484.54,36.34,1139.46,500.75,1002,890.81,771.37,1545.32,2007.8,985.69,2638.91,1005c701.7,23,752.37,586.51,1204.69,231.5,305.82-240,464.06-248.24,792.79-302.79,172.82-28.68,376.8-4,481.82-39.47" transform="translate(0.7 -113.47)"/><path class="cls-39" d="M0,221C476.11,41.3,1131.47,504.9,993.33,901.85c-230.76,663.1,1009.62,80.39,1647.83,99.67,701.72,22.6,758.85,611.1,1213.72,246.87C4158.82,1005,4304.92,975,4630,924.93c175.25-27,380.53-.64,488.38-37" transform="translate(0.7 -113.47)"/><path class="cls-40" d="M0,209.29C467.69,46.25,1123.47,509,984.65,912.9,753.75,1584.58,1998.1,978.8,2643.4,998.07c701.73,22.23,765.41,635.75,1222.75,262.24,302.1-246.72,436-298.51,757.48-344.13,177.68-25.22,384.25,2.77,494.94-34.58" transform="translate(0.7 -113.47)"/><path class="cls-41" d="M0,197.61C459.26,51.21,1115.46,513.19,976,923.94c-231,680.28,1017.28,51.41,1669.68,70.69,701.75,21.86,772,660.44,1231.78,277.61,300.29-250,421.94-323.55,739.82-364.8,180.1-23.37,388,6.17,501.51-32.13" transform="translate(0.7 -113.47)"/><path class="cls-42" d="M0,185.93C450.84,56.16,1107.45,517.34,967.28,935c-231.19,688.87,1021.11,36.92,1680.61,56.2,701.76,21.49,778.73,685.18,1240.81,293,298.52-253.37,407.83-348.52,722.16-385.48,182.51-21.46,391.7,9.58,508.07-29.68" transform="translate(0.7 -113.47)"/><path class="cls-43" d="M0,174.25C442.41,61.12,1099.43,521.48,958.6,946c-231.35,697.46,1024.94,22.43,1691.54,41.71,701.78,21.12,785.5,710,1249.84,308.36,296.78-256.68,393.68-373.44,704.5-406.15,184.91-19.46,395.42,13,514.63-27.24" transform="translate(0.7 -113.47)"/><path class="cls-44" d="M0,162.57C434,66.08,1091.4,525.63,949.92,957.07c-231.52,706,1028.77,7.93,1702.46,27.21C3354.17,1005,3444.72,1719.07,3911.25,1308c295.08-260,379.49-398.3,686.84-426.82,187.31-17.38,399.15,16.38,521.19-24.79" transform="translate(0.7 -113.47)"/><path class="cls-45" d="M0,150.89C425.56,71,1082.58,529.52,941.24,968.12c-233,714.23,1032.6-6.56,1713.39,12.72,701.81,20.38,799.24,759.64,1267.89,339.1,293.41-263.29,365.24-423.1,669.19-447.49,189.69-15.22,402.87,19.79,527.76-22.34" transform="translate(0.7 -113.47)"/><path class="cls-46" d="M0,139.21C417.14,76,1074.79,533.75,932.56,979.16c-232.75,723,1036.43-21,1724.32-1.77,701.82,20,806.22,784.54,1276.92,354.48,291.78-266.59,350.95-447.86,651.53-468.16,192.05-13,406.59,23.19,534.32-19.9" transform="translate(0.7 -113.47)"/><path class="cls-47" d="M0,127.53C408.71,80.94,1067,538,923.87,990.2c-232.52,731.69,1040.26-35.54,1735.25-16.26,701.84,19.65,813.27,809.48,1286,369.85,290.18-269.89,336.6-472.56,633.87-488.83,194.4-10.64,410.32,26.6,540.88-17.45" transform="translate(0.7 -113.47)"/><path class="cls-48" d="M0,115.85C400.29,85.9,1059.21,542.2,915.19,1001.25c-232.29,740.42,1044.09-50,1746.17-30.75,701.85,19.28,820.39,834.45,1295,385.22,288.61-273.19,322.18-497.22,616.21-509.5,196.73-8.22,414,30,547.44-15" transform="translate(0.7 -113.47)"/></svg>